# xmcd
# 
# Track frame offsets:
#     150
#     14132
#     29552
#     46667
#     60505
#     78135
#     91405
#     114210
#     128365
#     143190
#     163472
#     178017
#     189902
#     212185
#     228720
#     243542
#     260125
#     279202
#     295800
#     313255
# 
# Disc length: 4417
# 
# Revision: 39
# Processed by: cddbd v1.5.2PL0 Copyright (c) Steve Scherf et al.
# Submitted via: fre:ac v1.0.31
# 
DISCID=21113f14
DTITLE=The Pretenders - Greatest Hits
DYEAR=2000
DGENRE=Rock
TTITLE0=Brass In Pocket
TTITLE1=Message Of Love
TTITLE2=Don't Get Me Wrong
TTITLE3=Kid
TTITLE4=Human
TTITLE5=I Go To Sleep
TTITLE6=Forever Young
TTITLE7=UB40 and Chrissie Hynde: I Got You Babe
TTITLE8=Night In My Veins
TTITLE9=Moodswings and Chrissie Hynde: Spiritual High (State of Independence)
TTITLE10=Talk Of The Town
TTITLE11=Stop Your Sobbing
TTITLE12=Hymn To Her
TTITLE13=2000 Miles
TTITLE14=UB40 and Chrissie Hynde: Breakfast In Bed
TTITLE15=Popstar
TTITLE16=Middle Of The Road
TTITLE17=Thin Line between Love And Hate
TTITLE18=Back On The Chain Gang
TTITLE19=I'll Stand By You
EXTD=YEAR: 2000
EXTT0=
EXTT1=
EXTT2=
EXTT3=
EXTT4=
EXTT5=
EXTT6=
EXTT7=
EXTT8=
EXTT9=
EXTT10=
EXTT11=
EXTT12=
EXTT13=
EXTT14=
EXTT15=
EXTT16=
EXTT17=
EXTT18=
EXTT19=
PLAYORDER=
